#!OML:ASF F:\VICON\USERDATA\INSTALL\Justin_Nancy\Justin_Nancy.ASF
:FULLY-SPECIFIED
:DEGREES
1
root 0.938954 17.8291 -15.2958 6.94061 -6.38393 0.495445
lowerback 3.66411 -1.71188 -3.34891
upperback -1.07393 -2.36512 2.91865
thorax -2.90555 -1.09391 5.04651
lowerneck -15.2751 -10.39 -12.0983
upperneck 15.9596 -12.562 5.8693
head 8.62999 -6.13139 2.30227
rclavicle 1.09332e-015 1.19271e-014
rhumerus -32.4237 -11.7588 -78.8369
rradius 32.9697
rwrist 4.23696
rhand -7.96701 13.886
rfingers 7.12502
rthumb 17.9406 -15.3065
lclavicle 1.09332e-015 1.19271e-014
lhumerus -32.2766 12.7035 82.9479
lradius 30.4828
lwrist -7.76565
lhand -11.5247 24.7651
lfingers 7.12502
lthumb 14.515 54.2374
rfemur -11.9535 7.58251 19.1187
rtibia 21.4887
rfoot -11.245 -9.13827
rtoes 4.98871
lfemur -9.35573 -3.05772 -19.9811
ltibia 18.656
lfoot -12.427 9.17057
ltoes -0.504311
2
root 0.939174 17.8293 -15.2931 6.9576 -6.35431 0.483142
lowerback 3.59513 -1.69778 -3.32142
upperback -1.07075 -2.34338 2.92019
thorax -2.86678 -1.08462 5.02843
lowerneck -15.0936 -10.3819 -12.0054
upperneck 15.7957 -12.5658 5.76751
head 8.5295 -6.14168 2.26495
rclavicle -3.21037e-014 1.11319e-014
rhumerus -32.4697 -11.8131 -78.7732
rradius 32.9859
rwrist 4.37614
rhand -7.79582 13.8967
rfingers 7.12502
rthumb 18.1053 -15.2806
lclavicle -3.21037e-014 1.11319e-014
lhumerus -32.3214 12.7137 82.9504
lradius 30.5277
lwrist -7.87728
lhand -11.4236 24.4221
lfingers 7.12502
lthumb 14.6124 53.8873
rfemur -11.9621 7.51925 19.1366
rtibia 21.4977
rfoot -11.1467 -9.11196
rtoes 5.13354
lfemur -9.35566 -2.99052 -19.9686
ltibia 18.5997
lfoot -12.343 9.09435
ltoes -1.20358
3
root 0.9388 17.8309 -15.2941 6.97102 -6.25803 0.558751
lowerback 3.55442 -1.71336 -3.35892
upperback -1.0569 -2.36587 2.89119
thorax -2.82675 -1.09673 5.01844
lowerneck -15.0822 -10.3532 -12.0129
upperneck 15.7664 -12.5307 5.80008
head 8.51715 -6.12277 2.28314
rclavicle 1.93815e-014 -1.27222e-014
rhumerus -32.4724 -11.8304 -78.7636
rradius 33.0056
rwrist 4.41134
rhand -7.78033 14.0688
rfingers 7.12502
rthumb 18.1202 -15.1072
lclavicle 1.93815e-014 -1.27222e-014
lhumerus -32.2449 12.7198 82.9698
lradius 30.5304
lwrist -7.84176
lhand -11.2943 24.6687
lfingers 7.12502
lthumb 14.737 54.1249
rfemur -11.9884 7.41828 19.0608
rtibia 21.5227
rfoot -11.1434 -9.14964
rtoes 4.8902
lfemur -9.38782 -2.97716 -20.0446
ltibia 18.5331
lfoot -12.2714 8.99344
ltoes -1.59964
4
root 0.937943 17.8315 -15.2962 6.95965 -6.18134 0.566576
lowerback 3.60085 -1.75254 -3.33739
upperback -1.09567 -2.4182 2.88832
thorax -2.88822 -1.12094 5.00893
lowerneck -14.9615 -10.2764 -12.0703
upperneck 15.7661 -12.4391 5.8586
head 8.4957 -6.08072 2.33017
rclavicle -7.73272e-014 2.38542e-014
rhumerus -32.6032 -11.7043 -78.7663
rradius 33.0326
rwrist 4.32205
rhand -7.93598 14.3837
rfingers 7.12502
rthumb 17.9704 -14.8061
lclavicle -7.73272e-014 2.38542e-014
lhumerus -32.3287 12.7477 82.934
lradius 30.5168
lwrist -7.84887
lhand -11.3772 24.7301
lfingers 7.12502
lthumb 14.6571 54.1921
rfemur -11.979 7.3604 19.0646
rtibia 21.5405
rfoot -11.2378 -9.22147
rtoes 4.31337
lfemur -9.34921 -3.07194 -20.0408
ltibia 18.4862
lfoot -12.2974 8.97236
ltoes -1.13604
5
root 0.937307 17.831 -15.2961 6.9374 -6.14321 0.539903
lowerback 3.57372 -1.76658 -3.3052
upperback -1.07119 -2.43441 2.90666
thorax -2.84628 -1.13106 5.00881
lowerneck -14.4296 -10.235 -12.2529
upperneck 15.4423 -12.4404 6.10294
head 8.32317 -6.08151 2.46609
rclavicle 3.26007e-014 -2.3059e-014
rhumerus -32.5885 -11.6767 -78.7297
rradius 32.9882
rwrist 4.35201
rhand -7.97336 14.4488
rfingers 7.12502
rthumb 17.9345 -14.7443
lclavicle 3.26007e-014 -2.3059e-014
lhumerus -32.3065 12.7082 82.9784
lradius 30.5237
lwrist -7.88716
lhand -11.421 24.9525
lfingers 7.12502
lthumb 14.6149 54.4175
rfemur -11.952 7.29023 19.1023
rtibia 21.5496
rfoot -11.2807 -9.14796
rtoes 4.40596
lfemur -9.29074 -3.13163 -19.9948
ltibia 18.4611
lfoot -12.3523 8.91848
ltoes 0.0898099
6
root 0.935306 17.8299 -15.2989 6.91512 -6.07525 0.521235
lowerback 3.58975 -1.7538 -3.26966
upperback -1.01225 -2.41675 2.88345
thorax -2.79857 -1.12533 4.96242
lowerneck -13.7301 -10.2106 -12.3955
upperneck 15.0161 -12.5156 6.47531
head 8.10115 -6.10809 2.63602
rclavicle -4.29375e-014 1.66979e-014
rhumerus -32.4641 -11.7989 -78.7613
rradius 32.9689
rwrist 4.42513
rhand -7.76235 14.1221
rfingers 7.12502
rthumb 18.1375 -15.0523
lclavicle -4.29375e-014 1.66979e-014
lhumerus -32.1223 12.5731 83.0251
lradius 30.4895
lwrist -7.72808
lhand -11.3871 25.1063
lfingers 7.12502
lthumb 14.6475 54.569
rfemur -11.9221 7.26796 19.1484
rtibia 21.543
rfoot -11.2552 -9.16681
rtoes 4.51051
lfemur -9.29253 -3.12414 -19.9499
ltibia 18.4593
lfoot -12.3612 8.86781
ltoes 0.213071
7
root 0.934129 17.8306 -15.3046 6.95288 -6.0763 0.461816
lowerback 3.59558 -1.71456 -3.19776
upperback -0.983123 -2.36142 2.86979
thorax -2.78104 -1.09996 4.90394
lowerneck -13.4169 -10.1745 -12.4351
upperneck 14.8576 -12.5323 6.69965
head 8.01367 -6.10622 2.72937
rclavicle 3.97569e-015 1.59028e-014
rhumerus -32.436 -11.855 -78.7841
rradius 33.0231
rwrist 4.39667
rhand -7.75818 13.8873
rfingers 7.12502
rthumb 18.1415 -15.2867
lclavicle 3.97569e-015 1.59028e-014
lhumerus -32.0629 12.4519 83.0535
lradius 30.6204
lwrist -7.49402
lhand -11.2039 26.0386
lfingers 7.12502
lthumb 14.8241 55.4883
rfemur -11.9772 7.32031 19.2144
rtibia 21.5499
rfoot -11.2343 -9.18215
rtoes 4.55663
lfemur -9.34511 -3.15576 -19.8776
ltibia 18.4522
lfoot -12.3323 8.92523
ltoes -0.314922
